<?xml version="1.0" encoding="UTF-8"?>
<svg id="Capa_2" data-name="Capa 2" xmlns="http://www.w3.org/2000/svg" xmlns:xlink="http://www.w3.org/1999/xlink" viewBox="0 0 214.25 225.67">
  <defs>
    <style>
      .cls-1 {
        fill: url(#Degradado_sin_nombre_15-8);
      }

      .cls-1, .cls-2, .cls-3, .cls-4, .cls-5, .cls-6, .cls-7, .cls-8, .cls-9 {
        stroke-width: 0px;
      }

      .cls-10 {
        letter-spacing: -.07em;
      }

      .cls-2 {
        fill: url(#Degradado_sin_nombre_15-2);
      }

      .cls-3 {
        fill: #1a1a1a;
      }

      .cls-11 {
        fill: #c8ae6a;
        font-family: ArialMT, Arial;
        font-size: 4.42px;
      }

      .cls-12 {
        stroke: url(#Degradado_sin_nombre_15-6);
      }

      .cls-12, .cls-13 {
        fill: none;
        stroke-miterlimit: 10;
      }

      .cls-4 {
        fill: url(#Degradado_sin_nombre_15-5);
      }

      .cls-5 {
        fill: url(#Degradado_sin_nombre_15-9);
      }

      .cls-6 {
        fill: url(#Degradado_sin_nombre_15-10);
      }

      .cls-13 {
        stroke: url(#Degradado_sin_nombre_15);
        stroke-width: 3px;
      }

      .cls-7 {
        fill: url(#Degradado_sin_nombre_15-4);
      }

      .cls-8 {
        fill: url(#Degradado_sin_nombre_15-3);
      }

      .cls-9 {
        fill: url(#Degradado_sin_nombre_15-7);
      }
    </style>
    <linearGradient id="Degradado_sin_nombre_15" data-name="Degradado sin nombre 15" x1="0" y1="112.84" x2="214.25" y2="112.84" gradientUnits="userSpaceOnUse">
      <stop offset="0" stop-color="#936229"/>
      <stop offset=".51" stop-color="#f2eb98"/>
      <stop offset="1" stop-color="#926027"/>
    </linearGradient>
    <linearGradient id="Degradado_sin_nombre_15-2" data-name="Degradado sin nombre 15" x1="81.66" y1="59.04" x2="119.25" y2="59.04" xlink:href="#Degradado_sin_nombre_15"/>
    <linearGradient id="Degradado_sin_nombre_15-3" data-name="Degradado sin nombre 15" x1="81.3" y1="100.59" x2="131.56" y2="100.59" xlink:href="#Degradado_sin_nombre_15"/>
    <linearGradient id="Degradado_sin_nombre_15-4" data-name="Degradado sin nombre 15" x1="92.12" y1="151.43" x2="106.43" y2="151.43" xlink:href="#Degradado_sin_nombre_15"/>
    <linearGradient id="Degradado_sin_nombre_15-5" data-name="Degradado sin nombre 15" x1="44.41" y1="151.43" x2="58.72" y2="151.43" xlink:href="#Degradado_sin_nombre_15"/>
    <linearGradient id="Degradado_sin_nombre_15-6" data-name="Degradado sin nombre 15" x1="65.89" y1="151.43" x2="84.56" y2="151.43" xlink:href="#Degradado_sin_nombre_15"/>
    <linearGradient id="Degradado_sin_nombre_15-7" data-name="Degradado sin nombre 15" x1="92.12" y1="151.43" x2="106.43" y2="151.43" xlink:href="#Degradado_sin_nombre_15"/>
    <linearGradient id="Degradado_sin_nombre_15-8" data-name="Degradado sin nombre 15" x1="114.06" y1="151.43" x2="128.38" y2="151.43" xlink:href="#Degradado_sin_nombre_15"/>
    <linearGradient id="Degradado_sin_nombre_15-9" data-name="Degradado sin nombre 15" x1="136.01" y1="151.43" x2="149.57" y2="151.43" xlink:href="#Degradado_sin_nombre_15"/>
    <linearGradient id="Degradado_sin_nombre_15-10" data-name="Degradado sin nombre 15" x1="156.55" y1="151.43" x2="169.84" y2="151.43" xlink:href="#Degradado_sin_nombre_15"/>
  </defs>
  <g id="Capa_1-2" data-name="Capa 1">
    <g>
      <g>
        <rect class="cls-3" x="1.5" y="1.5" width="211.25" height="222.67"/>
        <rect class="cls-13" x="1.5" y="1.5" width="211.25" height="222.67"/>
      </g>
      <path class="cls-2" d="M81.66,64.99s27.46-3.35,37.21-11.85c.15-.13.38-.03.38.17v11.68h-37.59"/>
      <path class="cls-8" d="M81.3,68.32v64.54h50.27v-64.54h-50.27ZM101.21,95h.03l1.57,29.63c-2.68,2.09-4.73,0-4.73,0l1.33-29.69c-3.07-.75-5.4-4.77-5.4-9.61,0-5.38,2.88-9.74,6.44-9.74s6.43,4.36,6.43,9.74c0,4.99-2.48,9.11-5.68,9.67ZM119.74,123.92c-.19.3-2.41,3.61-5.26,0-.01-.02-.02-.04-.02-.07l.86-18.46c.06-1.21-.06-2.42-.41-3.58-1.59-5.31-4.89-23.74,3.51-25.6.06-.01.13.03.13.09l1.2,47.55s0,.03-.01.05Z"/>
      <g>
        <path class="cls-7" d="M106.17,160.71h0c.3-.25.34-.69.1-.98l-7.77-9.46c-.23-.27-.21-.67.04-.93l5.72-5.95c.27-.28.26-.72-.02-.99h0c-.28-.27-.72-.26-.99.02l-8.79,9.15c-.44.45-1.2.15-1.2-.48v-9.1h-1.14v18.17h1.14v-5.04c0-.18.07-.35.2-.48l3.13-3.26c.29-.3.78-.28,1.04.04l7.56,9.2c.25.3.69.34.98.1Z"/>
        <path class="cls-4" d="M58.47,160.82h0c.3-.25.34-.69.1-.98l-7.77-9.46c-.23-.27-.21-.67.04-.93l5.72-5.95c.27-.28.26-.72-.02-.99h0c-.28-.27-.72-.26-.99.02l-8.79,9.15c-.44.45-1.2.15-1.2-.48v-9.1c0-.29-1.14-.29-1.14,0v18.17c0,.24,1.14.24,1.14,0v-5.04c0-.18.07-.35.2-.48l3.13-3.26c.29-.3.78-.28,1.04.04l7.56,9.2c.25.3.69.34.98.1Z"/>
        <path class="cls-12" d="M78.81,142.99l.9-2.17s0-.07-.03-.08c-.03-.01-.07,0-.08.03l-.9,2.16c-1.07-.46-2.24-.71-3.47-.71-4.88,0-8.83,3.95-8.83,8.83,0,3.7,2.28,6.87,5.51,8.18l-1.17,2.81s0,.07.03.08.07,0,.08-.03l1.17-2.81c.99.39,2.07.61,3.2.61,4.88,0,8.83-3.95,8.83-8.83,0-3.6-2.16-6.69-5.25-8.07Z"/>
        <path class="cls-9" d="M106.17,160.82h0c.3-.25.34-.69.1-.98l-7.77-9.46c-.23-.27-.21-.67.04-.93l5.72-5.95c.27-.28.26-.72-.02-.99h0c-.28-.27-.72-.26-.99.02l-8.79,9.15c-.44.45-1.2.15-1.2-.48v-9.1c0-.29-1.14-.29-1.14,0v18.17c0,.24,1.14.24,1.14,0v-5.04c0-.18.07-.35.2-.48l3.13-3.26c.29-.3.78-.28,1.04.04l7.56,9.2c.25.3.69.34.98.1Z"/>
        <path class="cls-1" d="M128.12,160.82h0c.3-.25.34-.69.1-.98l-7.77-9.46c-.23-.27-.21-.67.04-.93l5.72-5.95c.27-.28.26-.72-.02-.99h0c-.28-.27-.72-.26-.99.02l-8.79,9.15c-.44.45-1.2.15-1.2-.48v-9.1c0-.29-1.14-.29-1.14,0v18.17c0,.24,1.14.24,1.14,0v-5.04c0-.18.07-.35.2-.48l3.13-3.26c.29-.3.78-.28,1.04.04l7.56,9.2c.25.3.69.34.98.1Z"/>
        <path class="cls-5" d="M149.18,159.55c.41.39.46.77,0,1.12h-12.48c-.38,0-.68-.3-.68-.68v-17.12c0-.38.3-.68.68-.68h12.48c.5.33.55.65,0,.95h-10.19c-.8,0-1.46.65-1.46,1.46v7.42c0,.38.3.68.68.68h8.03c.45,0,.81.36.81.81h0c0,.45-.36.81-.81.81h-8.03c-.38,0-.68.3-.68.68v3.88c0,.38.3.68.68.68h10.96,0Z"/>
        <path class="cls-6" d="M156.55,160.68c0,.23,1.14.23,1.14,0v-14.92c0-.91.99-1.48,1.78-1.02l8.65,5.05c.36.21.59.6.59,1.02v9.86c0,.23,1.14.23,1.14,0v-18.48c0-.23-1.1-.23-1.1,0v4.39c0,.92-1.01,1.49-1.8,1.01l-8.59-5.23c-.19-.11-.4-.17-.62-.17h0c-.65,0-1.18.53-1.18,1.18v17.3Z"/>
      </g>
      <text class="cls-11" transform="translate(42.86 178.18)"><tspan x="0" y="0">TRANSFORMANDO SABORES EN EXPERIENCIAS DIGI</tspan><tspan class="cls-10" x="114.87" y="0">T</tspan><tspan x="117.24" y="0">ALES</tspan></text>
    </g>
  </g>
</svg>